<svg xmlns="http://www.w3.org/2000/svg" viewBox="0 0 568 120" role="img" aria-label="Palmara logo">
  <title>Palmara</title>
  <path d="M24.00 68.00 A28.00 28.00 0 0 1 80.00 68.00 Z" fill="#1C2B2A"/>
  <path d="M12.00 84.00 Q26.00 72.00 40.00 84.00 T68.00 84.00 T96.00 84.00" fill="none" stroke="#1C2B2A" stroke-width="7.00" stroke-linecap="round"/>
  <path d="M165.2 39.699999999999996Q172.3 39.699999999999996 178.05 43.199999999999996Q183.8 46.699999999999996 187.15 53.15Q190.5 59.6 190.5 68.1Q190.5 76.6 187.15 83.15Q183.8 89.7 178.05 93.30000000000001Q172.3 96.9 165.2 96.9Q159.1 96.9 154.45 94.4Q149.8 91.9 146.9 88.1V122.4H132.9V40.599999999999994H146.9V48.599999999999994Q149.6 44.8 154.35 42.25Q159.1 39.699999999999996 165.2 39.699999999999996ZM161.5 52.0Q157.7 52.0 154.35 53.95Q151.0 55.9 148.95 59.599999999999994Q146.9 63.3 146.9 68.3Q146.9 73.3 148.95 77.0Q151.0 80.7 154.35 82.65Q157.7 84.6 161.5 84.6Q165.4 84.6 168.75 82.6Q172.1 80.6 174.14999999999998 76.9Q176.2 73.2 176.2 68.1Q176.2 63.1 174.14999999999998 59.45Q172.1 55.8 168.75 53.9Q165.4 52.0 161.5 52.0Z" fill="#1C2B2A"/>
  <path d="M221.4 39.699999999999996Q227.60000000000002 39.699999999999996 232.25 42.199999999999996Q236.9 44.699999999999996 239.70000000000002 48.5V40.599999999999994H253.8V96.0H239.70000000000002V87.9Q237.0 91.8 232.25 94.35Q227.5 96.9 221.3 96.9Q214.3 96.9 208.55 93.30000000000001Q202.8 89.7 199.45000000000002 83.15Q196.10000000000002 76.6 196.10000000000002 68.1Q196.10000000000002 59.699999999999996 199.45000000000002 53.199999999999996Q202.8 46.699999999999996 208.55 43.199999999999996Q214.3 39.699999999999996 221.4 39.699999999999996ZM225.0 52.0Q221.10000000000002 52.0 217.8 53.9Q214.5 55.8 212.45 59.45Q210.4 63.1 210.4 68.1Q210.4 73.1 212.45 76.85Q214.5 80.6 217.85000000000002 82.6Q221.20000000000002 84.6 225.0 84.6Q228.9 84.6 232.3 82.65Q235.70000000000002 80.7 237.70000000000002 77.05000000000001Q239.70000000000002 73.4 239.70000000000002 68.3Q239.70000000000002 63.199999999999996 237.70000000000002 59.55Q235.70000000000002 55.9 232.3 53.95Q228.9 52.0 225.0 52.0Z" fill="#1C2B2A"/>
  <path d="M280.5 22.0V96.0H266.5V22.0Z" fill="#1C2B2A"/>
  <path d="M384.80000000000007 63.5V96.0H370.80000000000007V65.4Q370.80000000000007 58.9 367.50000000000006 55.45Q364.20000000000005 52.0 358.50000000000006 52.0Q352.80000000000007 52.0 349.45000000000005 55.45Q346.1 58.9 346.1 65.4V96.0H332.1V65.4Q332.1 58.9 328.80000000000007 55.45Q325.50000000000006 52.0 319.8 52.0Q314.00000000000006 52.0 310.65000000000003 55.45Q307.3 58.9 307.3 65.4V96.0H293.3V40.599999999999994H307.3V47.3Q310.00000000000006 43.8 314.25000000000006 41.8Q318.50000000000006 39.8 323.6 39.8Q330.1 39.8 335.20000000000005 42.55Q340.30000000000007 45.3 343.1 50.4Q345.80000000000007 45.599999999999994 350.95000000000005 42.699999999999996Q356.1 39.8 362.1 39.8Q372.30000000000007 39.8 378.55000000000007 46.05Q384.80000000000007 52.3 384.80000000000007 63.5Z" fill="#1C2B2A"/>
  <path d="M418.80000000000007 39.699999999999996Q425.00000000000006 39.699999999999996 429.6500000000001 42.199999999999996Q434.30000000000007 44.699999999999996 437.1 48.5V40.599999999999994H451.20000000000005V96.0H437.1V87.9Q434.40000000000003 91.8 429.65000000000003 94.35Q424.90000000000003 96.9 418.70000000000005 96.9Q411.70000000000005 96.9 405.95000000000005 93.30000000000001Q400.20000000000005 89.7 396.85 83.15Q393.50000000000006 76.6 393.50000000000006 68.1Q393.50000000000006 59.699999999999996 396.85 53.199999999999996Q400.20000000000005 46.699999999999996 405.95000000000005 43.199999999999996Q411.70000000000005 39.699999999999996 418.80000000000007 39.699999999999996ZM422.40000000000003 52.0Q418.50000000000006 52.0 415.20000000000005 53.9Q411.90000000000003 55.8 409.85 59.45Q407.80000000000007 63.1 407.80000000000007 68.1Q407.80000000000007 73.1 409.85 76.85Q411.90000000000003 80.6 415.25 82.6Q418.6 84.6 422.40000000000003 84.6Q426.30000000000007 84.6 429.70000000000005 82.65Q433.1 80.7 435.1 77.05000000000001Q437.1 73.4 437.1 68.3Q437.1 63.199999999999996 435.1 59.55Q433.1 55.9 429.70000000000005 53.95Q426.30000000000007 52.0 422.40000000000003 52.0Z" fill="#1C2B2A"/>
  <path d="M494.90000000000003 39.8V54.5H491.20000000000005Q484.6000000000001 54.5 481.25000000000006 57.599999999999994Q477.90000000000003 60.699999999999996 477.90000000000003 68.4V96.0H463.90000000000003V40.599999999999994H477.90000000000003V49.199999999999996Q480.6000000000001 44.8 484.95000000000005 42.3Q489.30000000000007 39.8 494.90000000000003 39.8Z" fill="#1C2B2A"/>
  <path d="M525.0000000000001 39.699999999999996Q531.2 39.699999999999996 535.8500000000001 42.199999999999996Q540.5000000000001 44.699999999999996 543.3000000000001 48.5V40.599999999999994H557.4000000000001V96.0H543.3000000000001V87.9Q540.6000000000001 91.8 535.8500000000001 94.35Q531.1000000000001 96.9 524.9000000000001 96.9Q517.9000000000001 96.9 512.1500000000001 93.30000000000001Q506.4000000000001 89.7 503.05000000000007 83.15Q499.7000000000001 76.6 499.7000000000001 68.1Q499.7000000000001 59.699999999999996 503.05000000000007 53.199999999999996Q506.4000000000001 46.699999999999996 512.1500000000001 43.199999999999996Q517.9000000000001 39.699999999999996 525.0000000000001 39.699999999999996ZM528.6000000000001 52.0Q524.7 52.0 521.4000000000001 53.9Q518.1000000000001 55.8 516.0500000000002 59.45Q514.0000000000001 63.1 514.0000000000001 68.1Q514.0000000000001 73.1 516.0500000000002 76.85Q518.1000000000001 80.6 521.45 82.6Q524.8000000000001 84.6 528.6000000000001 84.6Q532.5000000000001 84.6 535.9000000000001 82.65Q539.3000000000001 80.7 541.3000000000001 77.05000000000001Q543.3000000000001 73.4 543.3000000000001 68.3Q543.3000000000001 63.199999999999996 541.3000000000001 59.55Q539.3000000000001 55.9 535.9000000000001 53.95Q532.5000000000001 52.0 528.6000000000001 52.0Z" fill="#1C2B2A"/>
</svg>
